<?xml version="1.0" encoding="utf-8"?>
<!-- Generator: Adobe Illustrator 16.0.0, SVG Export Plug-In . SVG Version: 6.00 Build 0)  -->
<!DOCTYPE svg PUBLIC "-//W3C//DTD SVG 1.1//EN" "http://www.w3.org/Graphics/SVG/1.1/DTD/svg11.dtd">
<svg version="1.1" id="layer_1" xmlns="http://www.w3.org/2000/svg" xmlns:xlink="http://www.w3.org/1999/xlink" x="0px"
	 y="0px" width="2405.11px" height="318.046px" viewBox="0 0 2405.11 318.046" enable-background="new 0 0 2405.11 318.046"
	 xml:space="preserve">
<polygon fill="#595857" points="397.068,80.766 397.068,94.675 309.153,94.675 309.153,152.546 391.996,152.546 391.996,166.456 
	309.153,166.456 309.153,228.592 398.761,228.592 398.761,242.501 292.249,242.501 292.249,80.766 "/>
<g>
	<defs>
		<rect id="SVGID_1_" width="2405.115" height="318.046"/>
	</defs>
	<clipPath id="SVGID_2_">
		<use xlink:href="#SVGID_1_"  overflow="visible"/>
	</clipPath>
	<path clip-path="url(#SVGID_2_)" fill="#595857" d="M443.653,134.6h-22.219v-13.008h22.219V90.41h16.424v31.182h35.984V134.6
		h-35.984v73.576c0,16.379,5.31,22.212,18.353,22.212c6.521,0,12.317-0.674,18.357-2.244l2.414,12.562
		c-5.073,1.796-14.975,2.916-21.978,2.916c-22.701,0-33.57-8.528-33.57-34.771V134.6z"/>
	<path clip-path="url(#SVGID_2_)" fill="#595857" d="M630.082,161.068v81.433h-16.424v-77.614c0-17.273-7.007-31.629-32.847-31.629
		c-21.979,0-37.196,16.599-37.196,30.728v78.516h-16.42V72.917h16.42v65.5c6.04-9.197,19.083-19.068,39.61-19.068
		C612.933,119.349,630.082,135.948,630.082,161.068"/>
	<path clip-path="url(#SVGID_2_)" fill="#595857" d="M764.091,230.606c-10.386,6.735-25.359,13.683-47.337,13.683
		c-34.537,0-55.067-20.183-55.067-55.401v-15.031c0-34.318,20.286-54.507,52.893-54.507c33.814,0,52.408,21.083,52.408,54.955v12.56
		h-88.877v2.023c0,26.689,14.972,41.946,38.884,41.946c17.389,0,30.432-5.605,39.849-11.887L764.091,230.606z M750.568,174.083
		v-2.021c0-25.123-13.287-39.252-35.988-39.252c-22.946,0-36.469,15.478-36.469,39.252v2.021H750.568z"/>
	<path clip-path="url(#SVGID_2_)" fill="#595857" d="M866.466,137.296c-4.348-1.568-9.417-2.47-15.698-2.47
		c-21.493,0-35.021,16.379-35.021,39.031v68.645h-16.42v-120.91h16.18v21.311c5.555-11.666,17.631-23.553,37.436-23.553
		c7.247,0,13.283,0.674,18.597,2.469L866.466,137.296z"/>
	<path clip-path="url(#SVGID_2_)" fill="#595857" d="M1012.081,94.448l-8.694,12.34c-15.699-10.318-28.742-13.682-46.372-13.682
		c-32.122,0-49.753,23.106-49.753,56.978v20.636c0,39.699,19.32,59.213,51.441,59.213c21.738,0,36.47-7.401,47.823-16.598
		l9.903,12.341c-12.802,10.765-30.433,19.288-57.966,19.288c-45.165,0-68.351-27.365-68.351-74.244V150.75
		c0-45.758,24.638-72.448,66.903-72.448C980.2,78.303,997.591,84.13,1012.081,94.448"/>
	<path clip-path="url(#SVGID_2_)" fill="#595857" d="M1148.024,174.304v15.031c0,34.771-20.53,54.955-55.31,54.955
		c-34.781,0-55.308-20.184-55.308-54.955v-15.031c0-34.992,20.527-54.955,55.308-54.955
		C1127.494,119.349,1148.024,139.538,1148.024,174.304 M1131.36,188.439v-13.234c0-28.492-14.738-42.394-38.646-42.394
		c-23.909,0-38.644,13.902-38.644,42.394v13.234c0,28.485,14.735,42.396,38.644,42.396
		C1116.623,230.835,1131.36,216.925,1131.36,188.439"/>
	<path clip-path="url(#SVGID_2_)" fill="#595857" d="M1247.74,137.296c-4.348-1.568-9.421-2.47-15.695-2.47
		c-21.5,0-35.024,16.379-35.024,39.031v68.645h-16.42v-120.91h16.183v21.311c5.555-11.666,17.628-23.553,37.434-23.553
		c7.242,0,13.286,0.674,18.597,2.469L1247.74,137.296z"/>
	<path clip-path="url(#SVGID_2_)" fill="#595857" d="M1371.377,230.606c-10.383,6.735-25.36,13.683-47.342,13.683
		c-34.536,0-55.06-20.183-55.06-55.401v-15.031c0-34.318,20.286-54.507,52.889-54.507c33.811,0,52.408,21.083,52.408,54.955v12.56
		h-88.877v2.023c0,26.689,14.976,41.946,38.884,41.946c17.391,0,30.433-5.605,39.854-11.887L1371.377,230.606z M1357.853,174.083
		v-2.021c0-25.123-13.287-39.252-35.988-39.252c-22.944,0-36.469,15.478-36.469,39.252v2.021H1357.853z"/>
	<polygon clip-path="url(#SVGID_2_)" fill="#3A6CAC" points="97.133,233.432 97.133,317.085 5.215,177.208 	"/>
	<polygon clip-path="url(#SVGID_2_)" fill="#395D7C" points="108.735,233.436 200.769,177.201 108.736,317.085 	"/>
	<polygon clip-path="url(#SVGID_2_)" fill="#3A6CAC" points="5.215,163.582 97.133,0.794 97.133,219.83 	"/>
	<polygon clip-path="url(#SVGID_2_)" fill="#3A6CAC" points="108.743,219.83 200.768,163.591 108.737,0.794 	"/>
	<polygon clip-path="url(#SVGID_2_)" fill="#214759" points="200.768,163.59 108.731,121.485 108.743,219.83 	"/>
	<polygon clip-path="url(#SVGID_2_)" fill="#396184" points="5.215,163.582 97.133,121.485 97.133,219.83 	"/>
	<path clip-path="url(#SVGID_2_)" fill="#396489" d="M1538.789,202.188v-4.703c0-15.232-7.84-23.071-42.336-30.911
		c-37.631-8.512-49.279-21.952-49.279-42.336v-5.152c0-24.416,22.176-40.992,52.863-40.992c21.729,0,36.961,5.824,47.936,13.664
		l-7.391,12.768c-10.305-7.392-23.969-12.096-40.545-12.096c-19.936,0-36.959,9.856-36.959,26.656v4.48
		c0,13.888,8.959,21.952,38.303,28.672c41.664,9.407,53.313,21.727,53.313,44.8v5.15c0,23.072-20.607,42.336-55.553,42.336
		c-21.279,0-40.543-6.943-54.879-17.92l8.064-13.216c15.904,11.648,31.584,16.576,46.143,16.576
		C1523.781,229.965,1538.789,216.75,1538.789,202.188"/>
	<path clip-path="url(#SVGID_2_)" fill="#396489" d="M1584.483,81.23h16.575v17.024h-16.575V81.23z M1585.154,121.326h15.231
		v120.735h-15.231V121.326z"/>
	<path clip-path="url(#SVGID_2_)" fill="#396489" d="M1715.744,226.156h-0.223c-6.721,12.098-21.953,17.696-35.84,17.696
		c-27.777,0-48.16-18.816-48.16-51.744V170.83c0-32.929,20.383-51.745,47.936-51.745c17.695,0,29.791,8.064,36.064,17.024V72.718
		h15.23v169.343h-15.008V226.156z M1646.754,189.869c0,25.761,13.439,40.544,33.6,40.544c19.486,0,35.168-10.305,35.168-31.583
		v-36.288c0-14.112-14.561-30.017-35.168-30.017c-20.385,0-33.6,15.008-33.6,40.543V189.869z"/>
	<path clip-path="url(#SVGID_2_)" fill="#396489" d="M1855.967,230.188c-9.631,6.72-23.52,13.664-43.904,13.664
		c-32.031,0-51.07-20.16-51.07-55.328v-15.008c0-34.271,18.814-54.431,49.055-54.431c31.359,0,48.607,21.056,48.607,54.88v12.544
		h-82.432v2.015c0,26.656,13.889,41.889,36.064,41.889c16.129,0,28.225-5.601,36.959-11.871L1855.967,230.188z M1843.424,173.741
		v-2.017c0-25.087-12.32-39.199-33.377-39.199c-21.279,0-33.824,15.456-33.824,39.199v2.017H1843.424z"/>
	<path clip-path="url(#SVGID_2_)" fill="#396489" d="M1971.555,130.958l-6.945,11.872c-11.199-7.84-21.279-10.08-32.703-10.08
		c-21.279,0-34.496,15.231-34.496,40.319v15.455c0,26.434,13.439,41.44,34.943,41.44c16.801,0,26.656-5.376,35.393-11.872
		l7.168,12.096c-8.736,6.721-21.057,13.664-42.783,13.664c-31.361,0-50.176-20.159-50.176-55.328v-15.008
		c0-35.167,20.383-54.431,49.951-54.431C1948.93,119.086,1961.475,123.342,1971.555,130.958"/>
	<path clip-path="url(#SVGID_2_)" fill="#396489" d="M2093.631,160.749v81.313h-15.232v-77.504c0-17.248-6.496-31.584-30.465-31.584
		c-20.383,0-34.494,16.576-34.494,30.688v78.4h-15.232V72.717h15.232v65.408c5.6-9.184,17.695-19.04,36.734-19.04
		C2077.727,119.085,2093.631,135.662,2093.631,160.749"/>
	<path clip-path="url(#SVGID_2_)" fill="#396489" d="M2122.523,209.357v-4.928c0-19.488,14.561-33.153,42.561-33.153h34.047v-11.199
		c0-17.472-9.855-27.327-28.672-27.327c-12.992,0-25.311,5.151-35.615,12.319l-7.393-11.648
		c11.201-7.839,24.865-14.335,43.232-14.335c26.881,0,43.455,14.111,43.455,38.527v84.448h-14.783v-14.785h-0.225
		c-2.24,3.809-7.168,8.289-13.439,11.424c-6.721,3.361-15.232,5.153-24.416,5.153
		C2138.428,243.854,2122.523,230.638,2122.523,209.357 M2199.131,184.045h-33.822c-19.266,0-27.553,8.735-27.553,21.057v3.584
		c0,15.679,13.439,21.952,25.76,21.952c9.633,0,17.023-2.465,24.191-6.945c6.496-4.032,11.424-10.08,11.424-19.263V184.045z"/>
	<path clip-path="url(#SVGID_2_)" fill="#396489" d="M2247.961,81.23h16.576v17.024h-16.576V81.23z M2248.633,121.326h15.232
		v120.735h-15.232V121.326z"/>
	<path clip-path="url(#SVGID_2_)" fill="#396489" d="M2395.801,160.749v81.313h-15.232v-77.504c0-17.248-6.496-31.584-30.465-31.584
		c-20.383,0-34.494,16.576-34.494,30.688v78.4h-15.232V121.325h15.008v16.8c5.6-9.184,17.92-19.04,36.959-19.04
		C2379.896,119.085,2395.801,135.662,2395.801,160.749"/>
</g>
</svg>
