<?xml version="1.0" encoding="utf-8"?>
<!-- Generator: Adobe Illustrator 16.0.0, SVG Export Plug-In . SVG Version: 6.00 Build 0)  -->
<!DOCTYPE svg PUBLIC "-//W3C//DTD SVG 1.1//EN" "http://www.w3.org/Graphics/SVG/1.1/DTD/svg11.dtd">
<svg version="1.1" id="layer_1" xmlns="http://www.w3.org/2000/svg" xmlns:xlink="http://www.w3.org/1999/xlink" x="0px"
	 y="0px" width="1381.29px" height="318.046px" viewBox="0 0 1381.29 318.046" enable-background="new 0 0 1381.29 318.046"
	 xml:space="preserve">
<polygon fill="#595857" points="397.068,80.766 397.068,94.675 309.153,94.675 309.153,152.546 391.996,152.546 391.996,166.456 
	309.153,166.456 309.153,228.592 398.761,228.592 398.761,242.501 292.249,242.501 292.249,80.766 "/>
<g>
	<defs>
		<rect id="SVGID_1_" width="1381.29" height="318.046"/>
	</defs>
	<clipPath id="SVGID_2_">
		<use xlink:href="#SVGID_1_"  overflow="visible"/>
	</clipPath>
	<path clip-path="url(#SVGID_2_)" fill="#595857" d="M443.653,134.6h-22.219v-13.008h22.219V90.41h16.424v31.182h35.984V134.6
		h-35.984v73.576c0,16.379,5.31,22.212,18.353,22.212c6.521,0,12.317-0.674,18.357-2.244l2.414,12.562
		c-5.073,1.796-14.975,2.916-21.978,2.916c-22.701,0-33.57-8.528-33.57-34.771V134.6z"/>
	<path clip-path="url(#SVGID_2_)" fill="#595857" d="M630.082,161.068v81.433h-16.424v-77.614c0-17.273-7.007-31.629-32.847-31.629
		c-21.979,0-37.196,16.599-37.196,30.728v78.516h-16.42V72.917h16.42v65.5c6.04-9.197,19.083-19.068,39.61-19.068
		C612.933,119.349,630.082,135.948,630.082,161.068"/>
	<path clip-path="url(#SVGID_2_)" fill="#595857" d="M764.092,230.606c-10.387,6.735-25.359,13.683-47.337,13.683
		c-34.538,0-55.067-20.183-55.067-55.401v-15.031c0-34.318,20.286-54.507,52.893-54.507c33.814,0,52.408,21.083,52.408,54.955v12.56
		h-88.877v2.023c0,26.689,14.972,41.946,38.884,41.946c17.39,0,30.433-5.605,39.85-11.887L764.092,230.606z M750.568,174.083v-2.021
		c0-25.123-13.287-39.252-35.988-39.252c-22.945,0-36.469,15.478-36.469,39.252v2.021H750.568z"/>
	<path clip-path="url(#SVGID_2_)" fill="#595857" d="M866.466,137.296c-4.348-1.568-9.417-2.47-15.698-2.47
		c-21.493,0-35.021,16.379-35.021,39.031v68.645h-16.42v-120.91h16.18v21.311c5.555-11.666,17.631-23.553,37.436-23.553
		c7.247,0,13.283,0.674,18.598,2.469L866.466,137.296z"/>
	<path clip-path="url(#SVGID_2_)" fill="#595857" d="M1012.081,94.448l-8.694,12.34c-15.698-10.318-28.741-13.682-46.371-13.682
		c-32.122,0-49.754,23.106-49.754,56.978v20.636c0,39.699,19.32,59.213,51.441,59.213c21.738,0,36.47-7.401,47.823-16.598
		l9.902,12.341c-12.802,10.765-30.433,19.288-57.966,19.288c-45.165,0-68.351-27.365-68.351-74.244V150.75
		c0-45.758,24.638-72.448,66.903-72.448C980.2,78.303,997.591,84.13,1012.081,94.448"/>
	<path clip-path="url(#SVGID_2_)" fill="#595857" d="M1148.024,174.304v15.031c0,34.771-20.53,54.955-55.31,54.955
		c-34.781,0-55.309-20.184-55.309-54.955v-15.031c0-34.992,20.527-54.955,55.309-54.955
		C1127.494,119.349,1148.024,139.538,1148.024,174.304 M1131.36,188.439v-13.234c0-28.492-14.738-42.394-38.646-42.394
		c-23.909,0-38.645,13.902-38.645,42.394v13.234c0,28.485,14.735,42.396,38.645,42.396
		C1116.622,230.835,1131.36,216.925,1131.36,188.439"/>
	<path clip-path="url(#SVGID_2_)" fill="#595857" d="M1247.74,137.296c-4.348-1.568-9.421-2.47-15.695-2.47
		c-21.5,0-35.024,16.379-35.024,39.031v68.645h-16.42v-120.91h16.183v21.311c5.555-11.666,17.628-23.553,37.434-23.553
		c7.242,0,13.286,0.674,18.597,2.469L1247.74,137.296z"/>
	<path clip-path="url(#SVGID_2_)" fill="#595857" d="M1371.377,230.606c-10.383,6.735-25.36,13.683-47.342,13.683
		c-34.536,0-55.06-20.183-55.06-55.401v-15.031c0-34.318,20.286-54.507,52.889-54.507c33.811,0,52.408,21.083,52.408,54.955v12.56
		h-88.877v2.023c0,26.689,14.976,41.946,38.884,41.946c17.391,0,30.433-5.605,39.854-11.887L1371.377,230.606z M1357.853,174.083
		v-2.021c0-25.123-13.287-39.252-35.988-39.252c-22.944,0-36.469,15.478-36.469,39.252v2.021H1357.853z"/>
	<polygon clip-path="url(#SVGID_2_)" fill="#3A6CAC" points="97.133,233.432 97.133,317.085 5.215,177.208 	"/>
	<polygon clip-path="url(#SVGID_2_)" fill="#395D7C" points="108.735,233.436 200.769,177.201 108.736,317.085 	"/>
	<polygon clip-path="url(#SVGID_2_)" fill="#3A6CAC" points="5.215,163.582 97.133,0.794 97.133,219.83 	"/>
	<polygon clip-path="url(#SVGID_2_)" fill="#3A6CAC" points="108.743,219.83 200.768,163.591 108.737,0.794 	"/>
	<polygon clip-path="url(#SVGID_2_)" fill="#214759" points="200.768,163.59 108.731,121.485 108.743,219.83 	"/>
	<polygon clip-path="url(#SVGID_2_)" fill="#396184" points="5.215,163.582 97.133,121.485 97.133,219.83 	"/>
</g>
</svg>
